<svg version="1.1" id="Layer_1" xmlns="http://www.w3.org/2000/svg" xmlns:xlink="http://www.w3.org/1999/xlink" x="0px" y="0px" style="enable-background:new 0 0 1112.16 429.54;" xml:space="preserve" viewBox="108.9 76.15 893.67 277.27">
<style type="text/css">
	.st0{display:none;fill:#3F9ED9;}
	.st1{fill:#FFFFFF;}
	.st2{fill:#3F9ED9;}
	.st3{fill:url(#SVGID_1_);}
	.st4{fill:url(#SVGID_2_);}
	.st5{fill:url(#SVGID_3_);}
	.st6{fill:url(#SVGID_4_);}
	.st7{fill:url(#SVGID_5_);}
	.st8{fill:url(#SVGID_6_);}
	.st9{fill:url(#SVGID_7_);}
	.st10{fill:url(#SVGID_8_);}
	.st11{fill:url(#SVGID_9_);}
	.st12{fill:url(#SVGID_10_);}
	.st13{fill:url(#SVGID_11_);}
	.st14{fill:url(#SVGID_12_);}
	.st15{fill:url(#SVGID_13_);}
	.st16{fill:url(#SVGID_14_);}
	.st17{fill:url(#SVGID_15_);}
	.st18{fill:url(#SVGID_16_);}
	.st19{fill:url(#SVGID_17_);}
	.st20{fill:url(#SVGID_18_);}
	.st21{fill:url(#SVGID_19_);}
	.st22{fill:url(#SVGID_20_);}
	.st23{fill:url(#SVGID_21_);}
	.st24{fill:url(#SVGID_22_);}
	.st25{fill:url(#SVGID_23_);}
	.st26{fill:url(#SVGID_24_);}
	.st27{fill:url(#SVGID_25_);}
	.st28{fill:url(#SVGID_26_);}
	.st29{fill:url(#SVGID_27_);}
	.st30{fill:url(#SVGID_28_);}
	.st31{fill:url(#SVGID_29_);}
	.st32{fill:url(#SVGID_30_);}
	.st33{fill:url(#SVGID_31_);}
	.st34{fill:url(#SVGID_32_);}
	.st35{fill:url(#SVGID_33_);}
	.st36{fill:url(#SVGID_34_);}
	.st37{fill:url(#SVGID_35_);}
	.st38{fill:url(#SVGID_36_);}
	.st39{fill:url(#SVGID_37_);}
	.st40{fill:url(#SVGID_38_);}
	.st41{fill:url(#SVGID_39_);}
	.st42{fill:url(#SVGID_40_);}
	.st43{fill:url(#SVGID_41_);}
	.st44{fill:url(#SVGID_42_);}
	.st45{fill:url(#SVGID_43_);}
	.st46{fill:url(#SVGID_44_);}
	.st47{display:none;fill:#3E9FD9;}
	.st48{fill:#419ED9;}
	.st49{fill:#3A8FC5;}
	.st50{fill:#EDEDED;}
	.st51{fill:none;}
	.st52{fill:#419EDA;}
	.st53{fill:url(#SVGID_45_);}
	.st54{fill:url(#SVGID_46_);}
	.st55{fill:url(#SVGID_47_);}
	.st56{fill:url(#SVGID_48_);}
	.st57{fill:url(#SVGID_49_);}
	.st58{fill:url(#SVGID_50_);}
	.st59{fill:url(#SVGID_51_);}
	.st60{fill:url(#SVGID_52_);}
	.st61{fill:url(#SVGID_53_);}
	.st62{fill:url(#SVGID_54_);}
	.st63{fill:url(#SVGID_55_);}
	.st64{fill:url(#SVGID_56_);}
	.st65{fill:url(#SVGID_57_);}
	.st66{fill:url(#SVGID_58_);}
	.st67{fill:url(#SVGID_59_);}
	.st68{fill:url(#SVGID_60_);}
	.st69{fill:url(#SVGID_61_);}
	.st70{fill:url(#SVGID_62_);}
	.st71{fill:url(#SVGID_63_);}
	.st72{fill:url(#SVGID_64_);}
	.st73{fill:url(#SVGID_65_);}
	.st74{fill:url(#SVGID_66_);}
	.st75{fill:url(#SVGID_67_);}
	.st76{fill:url(#SVGID_68_);}
	.st77{fill:url(#SVGID_69_);}
	.st78{fill:url(#SVGID_70_);}
	.st79{fill:url(#SVGID_71_);}
	.st80{fill:url(#SVGID_72_);}
	.st81{fill:url(#SVGID_73_);}
	.st82{fill:url(#SVGID_74_);}
	.st83{fill:url(#SVGID_75_);}
	.st84{fill:url(#SVGID_76_);}
	.st85{fill:url(#SVGID_77_);}
	.st86{fill:url(#SVGID_78_);}
	.st87{fill:url(#SVGID_79_);}
	.st88{fill:url(#SVGID_80_);}
	.st89{fill:url(#SVGID_81_);}
	.st90{fill:url(#SVGID_82_);}
	.st91{fill:url(#SVGID_83_);}
	.st92{fill:url(#SVGID_84_);}
	.st93{fill:url(#SVGID_85_);}
	.st94{fill:url(#SVGID_86_);}
	.st95{fill:url(#SVGID_87_);}
	.st96{fill:url(#SVGID_88_);}
	.st97{fill:url(#SVGID_89_);}
	.st98{fill:url(#SVGID_90_);}
	.st99{fill:url(#SVGID_91_);}
	.st100{fill:url(#SVGID_92_);}
	.st101{fill:url(#SVGID_93_);}
	.st102{fill:url(#SVGID_94_);}
	.st103{fill:url(#SVGID_95_);}
	.st104{fill:url(#SVGID_96_);}
	.st105{fill:url(#SVGID_97_);}
</style>
<rect x="-0.7" y="-0.14" class="st47" width="1112.86" height="429.81"/>
<g>
	<g>
		<linearGradient id="SVGID_1_" gradientUnits="userSpaceOnUse" x1="231.8283" y1="442.8428" x2="236.7324" y2="145.3253">
			<stop offset="0.4462" style="stop-color:#EDEDED"/>
			<stop offset="0.5087" style="stop-color:#F1F1F1"/>
			<stop offset="0.7325" style="stop-color:#FCFCFC"/>
			<stop offset="1" style="stop-color:#FFFFFF"/>
		</linearGradient>
		<path class="st3" d="M230.77,107.71c0.31,1.44,0.64,2.88,0.96,4.32v0.01c4.03-0.52,8.09-0.8,12.15-0.86    c-0.1-1.48-0.19-2.96-0.26-4.44C239.32,106.8,235.03,107.13,230.77,107.71"/>
		<linearGradient id="SVGID_2_" gradientUnits="userSpaceOnUse" x1="250.5631" y1="443.1516" x2="255.4673" y2="145.6341">
			<stop offset="0.4462" style="stop-color:#EDEDED"/>
			<stop offset="0.5087" style="stop-color:#F1F1F1"/>
			<stop offset="0.7325" style="stop-color:#FCFCFC"/>
			<stop offset="1" style="stop-color:#FFFFFF"/>
		</linearGradient>
		<path class="st4" d="M249.71,111.25c3.24,0.13,6.48,0.4,9.71,0.82c0.72,0.1,1.44,0.21,2.16,0.32c0.36-1.38,0.72-2.76,1.12-4.13    c0.01-0.04,0.02-0.08,0.03-0.11c-4.4-0.72-8.84-1.17-13.29-1.34C249.53,108.29,249.61,109.77,249.71,111.25"/>
		<linearGradient id="SVGID_3_" gradientUnits="userSpaceOnUse" x1="268.4152" y1="443.4458" x2="273.3193" y2="145.9284">
			<stop offset="0.4462" style="stop-color:#EDEDED"/>
			<stop offset="0.5087" style="stop-color:#F1F1F1"/>
			<stop offset="0.7325" style="stop-color:#FCFCFC"/>
			<stop offset="1" style="stop-color:#FFFFFF"/>
		</linearGradient>
		<path class="st5" d="M267.31,113.46c3.94,0.84,7.82,1.91,11.64,3.18c0.09-0.25,0.17-0.51,0.26-0.76c0.36-1.08,0.77-2.15,1.19-3.2    c-3.91-1.37-7.89-2.52-11.93-3.42C268.07,110.65,267.69,112.06,267.31,113.46"/>
		<linearGradient id="SVGID_4_" gradientUnits="userSpaceOnUse" x1="196.4422" y1="442.2595" x2="201.3464" y2="144.742">
			<stop offset="0.4462" style="stop-color:#EDEDED"/>
			<stop offset="0.5087" style="stop-color:#F1F1F1"/>
			<stop offset="0.7325" style="stop-color:#FCFCFC"/>
			<stop offset="1" style="stop-color:#FFFFFF"/>
		</linearGradient>
		<path class="st6" d="M195.29,118.98c0.2,0.47,0.4,0.95,0.6,1.42c0.4,0.92,0.8,1.83,1.22,2.74c2.74-1.45,5.54-2.79,8.4-4.01    c0.91-0.38,1.83-0.74,2.75-1.1c-0.52-1.4-1.04-2.8-1.53-4.22C202.82,115.31,199,117.04,195.29,118.98"/>
		<linearGradient id="SVGID_5_" gradientUnits="userSpaceOnUse" x1="190.785" y1="442.1662" x2="195.6891" y2="144.6488">
			<stop offset="0.4462" style="stop-color:#EDEDED"/>
			<stop offset="0.5087" style="stop-color:#F1F1F1"/>
			<stop offset="0.7325" style="stop-color:#FCFCFC"/>
			<stop offset="1" style="stop-color:#FFFFFF"/>
		</linearGradient>
		<path class="st7" d="M196.17,121.05c-0.06-0.13-0.11-0.27-0.17-0.4C196.05,120.79,196.11,120.92,196.17,121.05"/>
		<linearGradient id="SVGID_6_" gradientUnits="userSpaceOnUse" x1="180.3091" y1="441.9935" x2="185.2132" y2="144.4761">
			<stop offset="0.4462" style="stop-color:#EDEDED"/>
			<stop offset="0.5087" style="stop-color:#F1F1F1"/>
			<stop offset="0.7325" style="stop-color:#FCFCFC"/>
			<stop offset="1" style="stop-color:#FFFFFF"/>
		</linearGradient>
		<path class="st8" d="M186.62,124.04c-2.64,1.71-5.2,3.53-7.68,5.47c0.95,1.19,1.85,2.42,2.74,3.65c0.22-0.17,0.43-0.34,0.65-0.51    c3.12-2.39,6.37-4.61,9.72-6.63c-0.63-1.38-1.23-2.78-1.82-4.18c0.03,0.08,0.06,0.16,0.09,0.23c-0.04-0.08-0.07-0.17-0.11-0.25    C189,122.53,187.8,123.28,186.62,124.04 M182.66,132.38c-0.05,0.04-0.09,0.07-0.13,0.1C182.56,132.45,182.61,132.41,182.66,132.38    "/>
		<linearGradient id="SVGID_7_" gradientUnits="userSpaceOnUse" x1="166.3797" y1="441.7639" x2="171.2838" y2="144.2465">
			<stop offset="0.4462" style="stop-color:#EDEDED"/>
			<stop offset="0.5087" style="stop-color:#F1F1F1"/>
			<stop offset="0.7325" style="stop-color:#FCFCFC"/>
			<stop offset="1" style="stop-color:#FFFFFF"/>
		</linearGradient>
		<path class="st9" d="M170.96,136.35c-1.89,1.77-3.7,3.62-5.44,5.54c0.29,0.3,0.58,0.61,0.87,0.92c0.78,0.82,1.57,1.65,2.35,2.47    c2.67-2.95,5.5-5.74,8.47-8.38c-0.9-1.25-1.82-2.49-2.75-3.71C173.27,134.21,172.1,135.27,170.96,136.35"/>
		<linearGradient id="SVGID_8_" gradientUnits="userSpaceOnUse" x1="154.7054" y1="441.5715" x2="159.6095" y2="144.054">
			<stop offset="0.4462" style="stop-color:#EDEDED"/>
			<stop offset="0.5087" style="stop-color:#F1F1F1"/>
			<stop offset="0.7325" style="stop-color:#FCFCFC"/>
			<stop offset="1" style="stop-color:#FFFFFF"/>
		</linearGradient>
		<path class="st10" d="M157.6,151.6c-1.26,1.72-2.46,3.49-3.61,5.29c1.27,0.97,2.48,2.03,3.7,3.07c1.86-2.99,3.86-5.88,6-8.68    c0.41-0.53,0.83-1.05,1.25-1.57c-0.89-0.93-1.78-1.86-2.66-2.79c-0.2-0.2-0.39-0.41-0.58-0.62    C160.27,148.04,158.91,149.8,157.6,151.6 M163.83,151.1c-0.04,0.05-0.08,0.11-0.13,0.17C163.74,151.21,163.78,151.15,163.83,151.1     M163.65,151.32c-0.02,0.02-0.03,0.04-0.05,0.06C163.62,151.36,163.64,151.34,163.65,151.32"/>
		<linearGradient id="SVGID_9_" gradientUnits="userSpaceOnUse" x1="145.5885" y1="441.4212" x2="150.4927" y2="143.9038">
			<stop offset="0.4462" style="stop-color:#EDEDED"/>
			<stop offset="0.5087" style="stop-color:#F1F1F1"/>
			<stop offset="0.7325" style="stop-color:#FCFCFC"/>
			<stop offset="1" style="stop-color:#FFFFFF"/>
		</linearGradient>
		<path class="st11" d="M145.44,173.27c1.42,0.76,2.83,1.52,4.22,2.32c0.14-0.34,0.28-0.69,0.42-1.03c0-0.01,0.01-0.02,0.01-0.03    c0.05-0.11,0.09-0.22,0.14-0.34c-0.05,0.11-0.1,0.23-0.14,0.34c1.38-3.23,2.92-6.4,4.6-9.48c-1.26-1.03-2.48-2.11-3.73-3.15    C148.91,165.57,147.06,169.37,145.44,173.27"/>
		<linearGradient id="SVGID_10_" gradientUnits="userSpaceOnUse" x1="346.7213" y1="444.7366" x2="351.6255" y2="147.2191">
			<stop offset="0.4462" style="stop-color:#EDEDED"/>
			<stop offset="0.5087" style="stop-color:#F1F1F1"/>
			<stop offset="0.7325" style="stop-color:#FCFCFC"/>
			<stop offset="1" style="stop-color:#FFFFFF"/>
		</linearGradient>
		<path class="st12" d="M347.71,200.82c0,0.03,0.01,0.06,0.01,0.09C347.72,200.88,347.71,200.85,347.71,200.82    C347.71,200.82,347.7,200.82,347.71,200.82c0.52,4.1,0.81,8.22,0.87,12.33c0.88-0.04,1.76-0.07,2.64-0.11    c0.79-0.04,1.58-0.06,2.36-0.09c-0.01-0.39-0.01-0.78-0.02-1.16c-0.1-3.91-0.42-7.82-0.96-11.71    C350.97,200.34,349.34,200.56,347.71,200.82"/>
		<linearGradient id="SVGID_11_" gradientUnits="userSpaceOnUse" x1="302.6682" y1="444.0104" x2="307.5723" y2="146.493">
			<stop offset="0.4462" style="stop-color:#EDEDED"/>
			<stop offset="0.5087" style="stop-color:#F1F1F1"/>
			<stop offset="0.7325" style="stop-color:#FCFCFC"/>
			<stop offset="1" style="stop-color:#FFFFFF"/>
		</linearGradient>
		<path class="st13" d="M308.59,296.48c-3.23,2.48-6.59,4.76-10.07,6.85c0.64,1.34,1.27,2.69,1.89,4.04    c0.04,0.09,0.08,0.18,0.12,0.27c3.81-2.27,7.47-4.77,10.97-7.49c-0.02-0.03-0.04-0.07-0.07-0.1c-0.82-1.29-1.66-2.56-2.52-3.82    C308.81,296.3,308.7,296.39,308.59,296.48"/>
		<linearGradient id="SVGID_12_" gradientUnits="userSpaceOnUse" x1="286.6282" y1="443.7461" x2="291.5323" y2="146.2286">
			<stop offset="0.4462" style="stop-color:#EDEDED"/>
			<stop offset="0.5087" style="stop-color:#F1F1F1"/>
			<stop offset="0.7325" style="stop-color:#FCFCFC"/>
			<stop offset="1" style="stop-color:#FFFFFF"/>
		</linearGradient>
		<path class="st14" d="M285.5,309.98c-1.1,0.46-2.2,0.9-3.31,1.31c0.55,1.47,1.06,2.95,1.56,4.44c3.61-1.38,7.16-2.96,10.6-4.7    c0.36-0.18,0.73-0.37,1.09-0.56c-0.33-0.7-0.66-1.4-0.98-2.1c-0.34-0.73-0.67-1.45-1.02-2.18    C290.85,307.57,288.2,308.83,285.5,309.98 M286.13,310.15C286.12,310.15,286.12,310.15,286.13,310.15L286.13,310.15    C286.12,310.15,286.12,310.15,286.13,310.15"/>
		<linearGradient id="SVGID_13_" gradientUnits="userSpaceOnUse" x1="269.3196" y1="443.4608" x2="274.2237" y2="145.9433">
			<stop offset="0.4462" style="stop-color:#EDEDED"/>
			<stop offset="0.5087" style="stop-color:#F1F1F1"/>
			<stop offset="0.7325" style="stop-color:#FCFCFC"/>
			<stop offset="1" style="stop-color:#FFFFFF"/>
		</linearGradient>
		<path class="st15" d="M264.54,316.25c0.01,0.09,0.02,0.17,0.03,0.26c0.16,1.36,0.33,2.72,0.52,4.07c0.02,0.13,0.04,0.26,0.06,0.4    c3.62-0.68,7.21-1.54,10.75-2.58c0.79-0.23,1.59-0.48,2.38-0.73c-0.5-1.5-1.02-2.99-1.58-4.47    C272.7,314.45,268.65,315.47,264.54,316.25"/>
		<linearGradient id="SVGID_14_" gradientUnits="userSpaceOnUse" x1="251.1346" y1="443.161" x2="256.0387" y2="145.6435">
			<stop offset="0.4462" style="stop-color:#EDEDED"/>
			<stop offset="0.5087" style="stop-color:#F1F1F1"/>
			<stop offset="0.7325" style="stop-color:#FCFCFC"/>
			<stop offset="1" style="stop-color:#FFFFFF"/>
		</linearGradient>
		<path class="st16" d="M252.75,317.75c-1.85,0.13-3.72,0.23-5.58,0.25c-0.03,0.37-0.06,0.74-0.09,1.12    c-0.09,1.19-0.19,2.38-0.24,3.58c0,0.04,0,0.07-0.01,0.1c1.29-0.02,2.57-0.05,3.86-0.11c1.78-0.08,3.55-0.22,5.33-0.4    c1.14-0.11,2.27-0.25,3.4-0.4c-0.05-0.34-0.1-0.68-0.14-1.02c-0.17-1.23-0.32-2.47-0.45-3.7    C256.8,317.41,254.78,317.61,252.75,317.75"/>
		<linearGradient id="SVGID_15_" gradientUnits="userSpaceOnUse" x1="232.4978" y1="442.8538" x2="237.4019" y2="145.3363">
			<stop offset="0.4462" style="stop-color:#EDEDED"/>
			<stop offset="0.5087" style="stop-color:#F1F1F1"/>
			<stop offset="0.7325" style="stop-color:#FCFCFC"/>
			<stop offset="1" style="stop-color:#FFFFFF"/>
		</linearGradient>
		<path class="st17" d="M227.7,321.45c2.67,0.43,5.35,0.76,8.04,1c1.75,0.16,3.5,0.27,5.26,0.33c0.05-1.27,0.13-2.53,0.25-3.8    c0.03-0.37,0.07-0.73,0.1-1.1c-0.91-0.04-1.82-0.08-2.73-0.14c-2.29-0.15-4.58-0.38-6.85-0.68c-0.91-0.12-1.81-0.26-2.71-0.41    C228.61,318.26,228.17,319.86,227.7,321.45"/>
		<linearGradient id="SVGID_16_" gradientUnits="userSpaceOnUse" x1="214.2426" y1="442.5529" x2="219.1468" y2="145.0354">
			<stop offset="0.4462" style="stop-color:#EDEDED"/>
			<stop offset="0.5087" style="stop-color:#F1F1F1"/>
			<stop offset="0.7325" style="stop-color:#FCFCFC"/>
			<stop offset="1" style="stop-color:#FFFFFF"/>
		</linearGradient>
		<path class="st18" d="M209.34,316.78c2.01,0.71,4.04,1.36,6.09,1.94c2.15,0.62,4.33,1.17,6.52,1.64c0.47-1.6,0.92-3.21,1.37-4.82    c-4.1-0.91-8.14-2.06-12.1-3.45C210.62,313.67,210.01,315.24,209.34,316.78"/>
		<linearGradient id="SVGID_17_" gradientUnits="userSpaceOnUse" x1="196.9347" y1="442.2676" x2="201.8388" y2="144.7501">
			<stop offset="0.4462" style="stop-color:#EDEDED"/>
			<stop offset="0.5087" style="stop-color:#F1F1F1"/>
			<stop offset="0.7325" style="stop-color:#FCFCFC"/>
			<stop offset="1" style="stop-color:#FFFFFF"/>
		</linearGradient>
		<path class="st19" d="M194.64,305.31c-0.73,1.28-1.45,2.57-2.2,3.84c3.72,2.09,7.57,3.95,11.51,5.58l0.02-0.04    c0.64-1.54,1.25-3.09,1.84-4.64c-0.21-0.09-0.42-0.18-0.64-0.26c-3.49-1.5-6.9-3.18-10.2-5.04    C194.86,304.93,194.75,305.12,194.64,305.31"/>
		<linearGradient id="SVGID_18_" gradientUnits="userSpaceOnUse" x1="181.0249" y1="442.0053" x2="185.929" y2="144.4879">
			<stop offset="0.4462" style="stop-color:#EDEDED"/>
			<stop offset="0.5087" style="stop-color:#F1F1F1"/>
			<stop offset="0.7325" style="stop-color:#FCFCFC"/>
			<stop offset="1" style="stop-color:#FFFFFF"/>
		</linearGradient>
		<path class="st20" d="M177.5,297.79c-0.24,0.21-0.48,0.42-0.72,0.62c1.14,0.93,2.3,1.85,3.47,2.74c2.32,1.77,4.72,3.43,7.18,5    c0.78-1.33,1.56-2.66,2.3-4.02c0.07-0.13,0.15-0.27,0.22-0.4c-2.6-1.66-5.13-3.42-7.59-5.3c-0.6-0.47-1.2-0.94-1.79-1.42    C179.56,295.95,178.54,296.88,177.5,297.79"/>
		<linearGradient id="SVGID_19_" gradientUnits="userSpaceOnUse" x1="167.126" y1="441.7762" x2="172.0302" y2="144.2588">
			<stop offset="0.4462" style="stop-color:#EDEDED"/>
			<stop offset="0.5087" style="stop-color:#F1F1F1"/>
			<stop offset="0.7325" style="stop-color:#FCFCFC"/>
			<stop offset="1" style="stop-color:#FFFFFF"/>
		</linearGradient>
		<path class="st21" d="M166.29,282.87c-0.74,0.56-1.5,1.08-2.24,1.62c-0.29,0.21-0.57,0.42-0.86,0.64c0.77,0.9,1.56,1.79,2.35,2.66    c2.15,2.37,4.42,4.62,6.79,6.77c1.3-1.09,2.56-2.23,3.8-3.38c-3.13-2.84-6.08-5.86-8.86-9.04    C166.94,282.38,166.61,282.63,166.29,282.87"/>
		<linearGradient id="SVGID_20_" gradientUnits="userSpaceOnUse" x1="155.2181" y1="441.58" x2="160.1223" y2="144.0625">
			<stop offset="0.4462" style="stop-color:#EDEDED"/>
			<stop offset="0.5087" style="stop-color:#F1F1F1"/>
			<stop offset="0.7325" style="stop-color:#FCFCFC"/>
			<stop offset="1" style="stop-color:#FFFFFF"/>
		</linearGradient>
		<path class="st22" d="M152.38,270.08c0.36,0.6,0.72,1.2,1.09,1.8c1.87,3.02,3.9,5.94,6.06,8.75c1.05-0.75,2.09-1.51,3.13-2.27    c0.31-0.22,0.62-0.45,0.92-0.67c-0.01-0.02-0.03-0.04-0.04-0.05c-0.01-0.01-0.03-0.03-0.04-0.04h0c-0.04-0.05-0.07-0.09-0.1-0.13    c-2.43-3.18-4.67-6.49-6.74-9.91C155.25,268.41,153.82,269.25,152.38,270.08"/>
		<linearGradient id="SVGID_21_" gradientUnits="userSpaceOnUse" x1="145.9747" y1="441.4276" x2="150.8789" y2="143.9101">
			<stop offset="0.4462" style="stop-color:#EDEDED"/>
			<stop offset="0.5087" style="stop-color:#F1F1F1"/>
			<stop offset="0.7325" style="stop-color:#FCFCFC"/>
			<stop offset="1" style="stop-color:#FFFFFF"/>
		</linearGradient>
		<path class="st23" d="M148.26,251.06c-1.34,0.69-2.7,1.36-4.05,2.02c1.54,4.07,3.32,8.05,5.34,11.91    c1.43-0.83,2.85-1.66,4.26-2.52c-1.38-2.62-2.65-5.3-3.81-8.02c-0.49-1.17-0.96-2.35-1.41-3.55    C148.48,250.95,148.37,251.01,148.26,251.06"/>
		<linearGradient id="SVGID_22_" gradientUnits="userSpaceOnUse" x1="139.5772" y1="441.3221" x2="144.4814" y2="143.8047">
			<stop offset="0.4462" style="stop-color:#EDEDED"/>
			<stop offset="0.5087" style="stop-color:#F1F1F1"/>
			<stop offset="0.7325" style="stop-color:#FCFCFC"/>
			<stop offset="1" style="stop-color:#FFFFFF"/>
		</linearGradient>
		<path class="st24" d="M141.8,234.5c-0.89,0.1-1.79,0.19-2.68,0.32c0.09,0.46,0.18,0.93,0.27,1.39c0.75,3.84,1.73,7.63,2.9,11.36    c0.21-0.1,0.42-0.2,0.62-0.31c1.26-0.63,2.51-1.28,3.76-1.92c-0.81-2.58-1.52-5.2-2.13-7.84c-0.24-1.08-0.47-2.16-0.68-3.25    C143.18,234.34,142.49,234.42,141.8,234.5"/>
		<linearGradient id="SVGID_23_" gradientUnits="userSpaceOnUse" x1="136.4495" y1="441.2706" x2="141.3537" y2="143.7531">
			<stop offset="0.4462" style="stop-color:#EDEDED"/>
			<stop offset="0.5087" style="stop-color:#F1F1F1"/>
			<stop offset="0.7325" style="stop-color:#FCFCFC"/>
			<stop offset="1" style="stop-color:#FFFFFF"/>
		</linearGradient>
		<path class="st25" d="M137.2,215.75c0.05,4.07,0.33,8.15,0.83,12.19c0.05,0.39,0.1,0.78,0.15,1.16c0.68-0.1,1.37-0.18,2.05-0.26    c0.9-0.1,1.79-0.21,2.68-0.33c-0.54-4.26-0.83-8.54-0.87-12.83C140.43,215.69,138.82,215.7,137.2,215.75"/>
		<linearGradient id="SVGID_24_" gradientUnits="userSpaceOnUse" x1="136.399" y1="441.2697" x2="141.3031" y2="143.7523">
			<stop offset="0.4462" style="stop-color:#EDEDED"/>
			<stop offset="0.5087" style="stop-color:#F1F1F1"/>
			<stop offset="0.7325" style="stop-color:#FCFCFC"/>
			<stop offset="1" style="stop-color:#FFFFFF"/>
		</linearGradient>
		<path class="st26" d="M137.4,208.04c-0.04,0.62-0.07,1.25-0.1,1.88c0.72-0.04,1.44-0.06,2.16-0.06c0.9,0,1.8-0.01,2.69-0.01    c0.14-3.07,0.41-6.14,0.81-9.19c0.11-0.77,0.23-1.55,0.35-2.32c-0.54-0.09-1.08-0.19-1.61-0.28c-1.05-0.17-2.1-0.34-3.15-0.51    C138,201.02,137.62,204.53,137.4,208.04"/>
		<linearGradient id="SVGID_25_" gradientUnits="userSpaceOnUse" x1="139.412" y1="441.3194" x2="144.3161" y2="143.802">
			<stop offset="0.4462" style="stop-color:#EDEDED"/>
			<stop offset="0.5087" style="stop-color:#F1F1F1"/>
			<stop offset="0.7325" style="stop-color:#FCFCFC"/>
			<stop offset="1" style="stop-color:#FFFFFF"/>
		</linearGradient>
		<path class="st27" d="M140.54,187.93c-0.33,1.3-0.64,2.61-0.92,3.92c0.18,0.03,0.35,0.06,0.53,0.1c1.42,0.23,2.84,0.47,4.26,0.7    c0.85-3.9,1.93-7.74,3.21-11.52c-0.06-0.04-0.13-0.08-0.2-0.11c-1.35-0.76-2.72-1.52-4.08-2.26    C142.27,181.78,141.33,184.84,140.54,187.93"/>
		<linearGradient id="SVGID_26_" gradientUnits="userSpaceOnUse" x1="149.469" y1="212.9179" x2="150.7343" y2="136.1532">
			<stop offset="0.4462" style="stop-color:#EDEDED"/>
			<stop offset="0.5087" style="stop-color:#F1F1F1"/>
			<stop offset="0.7325" style="stop-color:#FCFCFC"/>
			<stop offset="1" style="stop-color:#FFFFFF"/>
		</linearGradient>
		<polyline class="st28" points="150.1,174.53 150.1,174.54 150.1,174.53   "/>
		<linearGradient id="SVGID_27_" gradientUnits="userSpaceOnUse" x1="327.9351" y1="444.4269" x2="332.8392" y2="146.9095">
			<stop offset="0.4462" style="stop-color:#EDEDED"/>
			<stop offset="0.5087" style="stop-color:#F1F1F1"/>
			<stop offset="0.7325" style="stop-color:#FCFCFC"/>
			<stop offset="1" style="stop-color:#FFFFFF"/>
		</linearGradient>
		<path class="st29" d="M328.45,150.2c-0.4,0.37-0.81,0.74-1.21,1.12c2.5,3.3,4.82,6.75,6.93,10.31c0.01,0.01,0.01,0.02,0.02,0.03    c1.33-0.74,2.66-1.5,3.96-2.28c-2.33-3.84-4.9-7.53-7.69-11.05C329.79,148.95,329.12,149.58,328.45,150.2"/>
		<linearGradient id="SVGID_28_" gradientUnits="userSpaceOnUse" x1="315.9508" y1="444.2294" x2="320.855" y2="146.7119">
			<stop offset="0.4462" style="stop-color:#EDEDED"/>
			<stop offset="0.5087" style="stop-color:#F1F1F1"/>
			<stop offset="0.7325" style="stop-color:#FCFCFC"/>
			<stop offset="1" style="stop-color:#FFFFFF"/>
		</linearGradient>
		<path class="st30" d="M315.16,138.1c1.08,1,2.15,2.02,3.2,3.06c1.82,1.81,3.56,3.7,5.23,5.65c0.38-0.35,0.76-0.7,1.14-1.05    c0.67-0.63,1.35-1.26,2.02-1.89c-1.46-1.66-2.97-3.28-4.53-4.85c-1.44-1.45-2.93-2.87-4.45-4.24    C316.88,135.89,316.01,137,315.16,138.1"/>
		<linearGradient id="SVGID_29_" gradientUnits="userSpaceOnUse" x1="301.8379" y1="443.9968" x2="306.742" y2="146.4793">
			<stop offset="0.4462" style="stop-color:#EDEDED"/>
			<stop offset="0.5087" style="stop-color:#F1F1F1"/>
			<stop offset="0.7325" style="stop-color:#FCFCFC"/>
			<stop offset="1" style="stop-color:#FFFFFF"/>
		</linearGradient>
		<path class="st31" d="M300.73,127.03c2.62,1.67,5.17,3.45,7.65,5.34c-0.01,0-0.01-0.01-0.02-0.01c0.02,0.02,0.04,0.03,0.06,0.05    c0.04,0.03,0.08,0.06,0.12,0.09c0.04,0.03,0.07,0.06,0.11,0.09c0.71,0.55,1.41,1.12,2.1,1.69c0,0,0,0,0,0    c0.85-1.09,1.7-2.18,2.57-3.26c-3.4-2.75-6.96-5.29-10.66-7.6C302.01,124.61,301.37,125.82,300.73,127.03"/>
		<linearGradient id="SVGID_30_" gradientUnits="userSpaceOnUse" x1="285.6845" y1="443.7305" x2="290.5887" y2="146.213">
			<stop offset="0.4462" style="stop-color:#EDEDED"/>
			<stop offset="0.5087" style="stop-color:#F1F1F1"/>
			<stop offset="0.7325" style="stop-color:#FCFCFC"/>
			<stop offset="1" style="stop-color:#FFFFFF"/>
		</linearGradient>
		<path class="st32" d="M285.06,116.71c-0.22,0.63-0.44,1.27-0.66,1.9c0.77,0.3,1.54,0.62,2.31,0.94c0.45,0.19,0.9,0.39,1.35,0.59    c2.61,1.2,5.16,2.5,7.66,3.9c0.63-1.2,1.27-2.4,1.93-3.58c-1.95-1.08-3.92-2.09-5.93-3.05c-1.94-0.95-3.91-1.83-5.9-2.66    C285.56,115.39,285.3,116.05,285.06,116.71"/>
		<linearGradient id="SVGID_31_" gradientUnits="userSpaceOnUse" x1="213.6413" y1="442.543" x2="218.5454" y2="145.0255">
			<stop offset="0.4462" style="stop-color:#EDEDED"/>
			<stop offset="0.5087" style="stop-color:#F1F1F1"/>
			<stop offset="0.7325" style="stop-color:#FCFCFC"/>
			<stop offset="1" style="stop-color:#FFFFFF"/>
		</linearGradient>
		<path class="st33" d="M223.4,108.96c-3.79,0.77-7.53,1.75-11.21,2.93c0.34,1,0.69,2,1.06,2.99c0.15,0.41,0.31,0.83,0.46,1.24    c4.02-1.29,8.11-2.34,12.26-3.14c-0.32-1.45-0.64-2.89-0.96-4.34C224.48,108.74,223.94,108.85,223.4,108.96"/>
		<linearGradient id="SVGID_32_" gradientUnits="userSpaceOnUse" x1="303.4967" y1="444.0241" x2="308.0401" y2="168.3933">
			<stop offset="0.4462" style="stop-color:#EDEDED"/>
			<stop offset="0.5087" style="stop-color:#F1F1F1"/>
			<stop offset="0.7325" style="stop-color:#FCFCFC"/>
			<stop offset="1" style="stop-color:#FFFFFF"/>
		</linearGradient>
		<path class="st34" d="M308.65,132.59c-0.02-0.01-0.03-0.03-0.05-0.04C308.62,132.56,308.64,132.57,308.65,132.59"/>
		<linearGradient id="SVGID_33_" gradientUnits="userSpaceOnUse" x1="160.7398" y1="441.671" x2="165.644" y2="144.1535">
			<stop offset="0.4462" style="stop-color:#EDEDED"/>
			<stop offset="0.5087" style="stop-color:#F1F1F1"/>
			<stop offset="0.7325" style="stop-color:#FCFCFC"/>
			<stop offset="1" style="stop-color:#FFFFFF"/>
		</linearGradient>
		<path class="st35" d="M163.49,277.58c-0.03-0.04-0.06-0.08-0.08-0.11C163.43,277.51,163.46,277.55,163.49,277.58"/>
		<linearGradient id="SVGID_34_" gradientUnits="userSpaceOnUse" x1="303.3119" y1="444.0211" x2="308.216" y2="146.5036">
			<stop offset="0.4462" style="stop-color:#EDEDED"/>
			<stop offset="0.5087" style="stop-color:#F1F1F1"/>
			<stop offset="0.7325" style="stop-color:#FCFCFC"/>
			<stop offset="1" style="stop-color:#FFFFFF"/>
		</linearGradient>
		<path class="st36" d="M308.52,132.48c-0.03-0.03-0.07-0.05-0.1-0.08c-0.01-0.01-0.03-0.02-0.04-0.03    C308.42,132.41,308.47,132.45,308.52,132.48"/>
		<linearGradient id="SVGID_35_" gradientUnits="userSpaceOnUse" x1="160.6187" y1="441.669" x2="165.5229" y2="144.1515">
			<stop offset="0.4462" style="stop-color:#EDEDED"/>
			<stop offset="0.5087" style="stop-color:#F1F1F1"/>
			<stop offset="0.7325" style="stop-color:#FCFCFC"/>
			<stop offset="1" style="stop-color:#FFFFFF"/>
		</linearGradient>
		<path class="st37" d="M163.39,277.45c-0.04-0.05-0.08-0.1-0.12-0.15C163.31,277.35,163.35,277.4,163.39,277.45"/>
	</g>
	<linearGradient id="SVGID_36_" gradientUnits="userSpaceOnUse" x1="245.3921" y1="405.7166" x2="245.3921" y2="189.9347">
		<stop offset="0.4462" style="stop-color:#EDEDED"/>
		<stop offset="0.5087" style="stop-color:#F1F1F1"/>
		<stop offset="0.7325" style="stop-color:#FCFCFC"/>
		<stop offset="1" style="stop-color:#FFFFFF"/>
	</linearGradient>
	<path class="st38" d="M216.93,149.21l33.58-4.05l4.63,0.54c1.79,0.21,2.99,1.96,2.53,3.71l-11.57,44.21   c2.68-1.25,5.62-2.2,8.83-2.85c3.21-0.65,6.6-0.76,10.16-0.34c13.55,1.59,22.4,6.51,26.55,14.77c4.15,8.26,4.19,19.98,0.12,35.16   c-1.96,7.48-4.61,14.13-7.94,19.94c-3.33,5.82-7.3,10.62-11.9,14.42c-4.6,3.8-9.86,6.5-15.77,8.09   c-5.91,1.59-12.37,1.98-19.38,1.16c-4.04-0.47-7.84-1.25-11.38-2.33c-3.55-1.08-6.99-2.54-10.33-4.37   c-3.34-1.84-6.56-4.14-9.67-6.92c-3.11-2.77-6.24-6.15-9.38-10.14l25.88-99.27l-6.58-1.07c-1.35-0.22-2.29-1.46-2.13-2.83   l0.54-4.59C213.9,150.75,215.24,149.41,216.93,149.21z M252.12,215.25c-2.02-0.24-4.07-0.29-6.15,0.49l-0.06,0.02   c-3.6,1.36-6.32,4.71-7.3,8.43l-7.9,28.84c-0.74,2.82,0.46,5.84,3.02,7.24c0.01,0.01,0.03,0.02,0.04,0.02   c1.41,0.77,3.65,1.95,5.78,2.2c4.87,0.57,9.71-1.31,13.02-4.73c1.49-1.54,4.28-5.22,7.7-16.44c2.57-8.43,2.65-14.87,1.33-19   C260.27,218.2,257.11,215.84,252.12,215.25z"/>
	<linearGradient id="SVGID_37_" gradientUnits="userSpaceOnUse" x1="350.4856" y1="405.7166" x2="350.4856" y2="189.9347">
		<stop offset="0.4462" style="stop-color:#EDEDED"/>
		<stop offset="0.5087" style="stop-color:#F1F1F1"/>
		<stop offset="0.7325" style="stop-color:#FCFCFC"/>
		<stop offset="1" style="stop-color:#FFFFFF"/>
	</linearGradient>
	<path class="st39" d="M347.99,244.63c1.46,0.51,2.93,1.02,4.38,1.55c0.2,0.07,0.4,0.15,0.6,0.22"/>
	<linearGradient id="SVGID_38_" gradientUnits="userSpaceOnUse" x1="138.0595" y1="205.6026" x2="138.0595" y2="122.5771">
		<stop offset="0.4462" style="stop-color:#EDEDED"/>
		<stop offset="0.5087" style="stop-color:#F1F1F1"/>
		<stop offset="0.7325" style="stop-color:#FCFCFC"/>
		<stop offset="1" style="stop-color:#FFFFFF"/>
	</linearGradient>
	<polyline class="st40" points="138.06,164.08 138.06,164.09 138.06,164.08  "/>
	<linearGradient id="SVGID_39_" gradientUnits="userSpaceOnUse" x1="152.5834" y1="405.7166" x2="152.5834" y2="189.9347">
		<stop offset="0.4462" style="stop-color:#EDEDED"/>
		<stop offset="0.5087" style="stop-color:#F1F1F1"/>
		<stop offset="0.7325" style="stop-color:#FCFCFC"/>
		<stop offset="1" style="stop-color:#FFFFFF"/>
	</linearGradient>
	<path class="st41" d="M152.63,276.25c-0.03-0.04-0.06-0.08-0.09-0.12C152.57,276.17,152.6,276.21,152.63,276.25"/>
	<linearGradient id="SVGID_40_" gradientUnits="userSpaceOnUse" x1="152.4543" y1="405.7166" x2="152.4543" y2="189.9347">
		<stop offset="0.4462" style="stop-color:#EDEDED"/>
		<stop offset="0.5087" style="stop-color:#F1F1F1"/>
		<stop offset="0.7325" style="stop-color:#FCFCFC"/>
		<stop offset="1" style="stop-color:#FFFFFF"/>
	</linearGradient>
	<path class="st42" d="M152.52,276.1c-0.04-0.05-0.09-0.11-0.13-0.16C152.43,275.99,152.48,276.05,152.52,276.1"/>
	<linearGradient id="SVGID_41_" gradientUnits="userSpaceOnUse" x1="354.5226" y1="405.7166" x2="354.5226" y2="189.9347">
		<stop offset="0.4462" style="stop-color:#EDEDED"/>
		<stop offset="0.5087" style="stop-color:#F1F1F1"/>
		<stop offset="0.7325" style="stop-color:#FCFCFC"/>
		<stop offset="1" style="stop-color:#FFFFFF"/>
	</linearGradient>
	<path class="st43" d="M386.63,260.9c0,0-6.92,19.57-21.58,22.04c-1.67,0.28,0.38-0.07,0,0c-6.96,1.23-13.97,1.22-21.02-0.03   c-7.39-1.31-13.64-3.65-18.73-7.01c-5.09-3.37-9.04-7.43-11.82-12.21c-2.79-4.77-4.37-10.12-4.72-16.05   c-0.36-5.93,0.49-12.05,2.55-18.37c2-5.98,4.76-11.47,8.28-16.48c3.53-5.01,7.75-9.18,12.69-12.53c4.93-3.35,10.57-5.69,16.9-7.04   c6.33-1.34,13.31-1.34,20.93,0.01c10.46,1.85,18.22,5.72,23.28,11.6c5.06,5.88,7.36,12.71,6.93,20.49   c-0.4,7.55-2.53,13.1-6.38,16.64c-3.85,3.54-10.02,5.73-18.49,6.58c-5.49,0.55-11.06,0.71-16.71,0.47   c-5.65-0.24-11.42-0.58-17.32-1.04c0.3,2.28,0.98,4.4,2.04,6.34c1.06,1.95,2.54,3.68,4.45,5.19c1.9,1.51,4.33,2.7,7.28,3.58   c2.95,0.87,6.53,1.39,10.72,1.55c3.24,0.22,6.51-0.02,9.8-0.73C379.01,263.19,382.65,262.19,386.63,260.9L386.63,260.9z    M361.12,216.88c-3.87-0.68-7.5,0.61-10.89,3.88c-2.78,2.68-5.16,6.62-7.13,11.82c-0.7,1.85,0.64,3.83,2.62,3.86l4.98,0.07   c2.87,0.04,5.66,0.01,8.37-0.1c3.3-0.12,5.91-0.95,7.83-2.48c1.91-1.54,2.93-3.64,3.05-6.32c0.19-2.43-0.49-4.69-2.05-6.79   C366.34,218.71,364.08,217.4,361.12,216.88z"/>
	<linearGradient id="SVGID_42_" gradientUnits="userSpaceOnUse" x1="446.2326" y1="405.7166" x2="446.2326" y2="189.9347">
		<stop offset="0.4462" style="stop-color:#EDEDED"/>
		<stop offset="0.5087" style="stop-color:#F1F1F1"/>
		<stop offset="0.7325" style="stop-color:#FCFCFC"/>
		<stop offset="1" style="stop-color:#FFFFFF"/>
	</linearGradient>
	<path class="st44" d="M418.47,189.88l19.23-1.83l14.12-15.13c2.7-2.9,6.63-4.32,10.56-3.83l6.77,0.85l-6.37,23.8l8.65,1.08   c4.85,0.61,8.03,5.39,6.71,10.1l-2.09,7.44l-17.7-2.22l-10.76,39.87c-1.9,7-2.01,11.74-0.34,14.21c1.67,2.47,5.79,3.16,12.38,2.06   l0,0c-2.67,9.84-11.32,16.95-21.5,17.49c-0.53,0.03-1.05,0.05-1.56,0.06c-5.78,0.12-10.52-0.89-14.2-3.05   c-3.69-2.16-6.18-5.47-7.49-9.93c-1.31-4.46-1.03-10.08,0.84-16.86l12.92-47.57l-6.54-0.82c-3.66-0.46-6.14-3.96-5.36-7.57   L418.47,189.88z"/>
	<linearGradient id="SVGID_43_" gradientUnits="userSpaceOnUse" x1="611.0803" y1="405.7166" x2="611.0803" y2="189.9347">
		<stop offset="0.4462" style="stop-color:#EDEDED"/>
		<stop offset="0.5087" style="stop-color:#F1F1F1"/>
		<stop offset="0.7325" style="stop-color:#FCFCFC"/>
		<stop offset="1" style="stop-color:#FFFFFF"/>
	</linearGradient>
	<path class="st45" d="M582.09,190.63l19.17-2.37l13.68-15.52c2.62-2.97,6.51-4.51,10.45-4.12l6.79,0.66l-5.7,23.97l8.68,0.84   c4.87,0.47,8.18,5.16,6.99,9.91l-1.88,7.5l-17.76-1.72l-9.64,40.16c-1.7,7.05-1.68,11.79,0.06,14.21   c1.74,2.42,5.88,2.99,12.43,1.71v0c-2.39,9.91-10.84,17.26-21,18.09c-0.52,0.04-1.04,0.08-1.56,0.1   c-5.78,0.29-10.54-0.6-14.29-2.65c-3.75-2.05-6.34-5.29-7.77-9.71c-1.43-4.42-1.31-10.05,0.36-16.87l11.57-47.92l-6.56-0.64   c-3.67-0.36-6.25-3.79-5.57-7.42L582.09,190.63z"/>
	<linearGradient id="SVGID_44_" gradientUnits="userSpaceOnUse" x1="521.6371" y1="405.7166" x2="521.6371" y2="189.9347">
		<stop offset="0.4462" style="stop-color:#EDEDED"/>
		<stop offset="0.5087" style="stop-color:#F1F1F1"/>
		<stop offset="0.7325" style="stop-color:#FCFCFC"/>
		<stop offset="1" style="stop-color:#FFFFFF"/>
	</linearGradient>
	<path class="st46" d="M496.56,251.55l1.58,0.11l1.26,8.89c1.88,1.06,4.14,2.02,6.78,2.9c2.64,0.88,5.79,1.45,9.46,1.71   c4.47,0.32,7.73-0.34,9.81-1.97c2.07-1.64,3.36-3.47,3.85-5.51c0.62-2.26,0.24-4.13-1.15-5.61c-1.39-1.48-4.47-2.74-9.23-3.77   c-11.25-2.07-18.96-5.7-23.13-10.89c-4.18-5.19-5.18-11.73-3-19.64c1.07-3.72,2.78-7.19,5.15-10.42c2.36-3.22,5.32-5.98,8.88-8.26   c3.56-2.28,7.65-4,12.28-5.17c4.63-1.16,9.75-1.55,15.36-1.15c5.72,0.41,11.12,1.48,16.17,3.23c4.94,1.7,9.43,4.14,13.5,7.31   c0.19,0.15,0.41,0.27,0.65,0.33l0,0c1.09,0.32,1.68,1.49,1.3,2.55l-1.3,3.6c-2.88,7.96-10.69,13.03-19.13,12.43l0,0   c-1.05-0.07-1.85-0.97-1.82-2.02l0.2-6.56c-1.56-0.69-3.36-1.3-5.39-1.85c-2.03-0.55-4.37-0.92-7-1.1   c-3.78-0.27-6.64,0.25-8.57,1.55c-1.94,1.3-3.08,2.86-3.44,4.67c-0.36,1.82,0.19,3.38,1.65,4.69c1.46,1.31,4.57,2.43,9.34,3.34   c6.25,1.14,11.44,2.63,15.56,4.48c4.12,1.85,7.3,4.12,9.53,6.81c2.22,2.69,3.56,5.75,4.01,9.18c0.45,3.43,0.11,7.29-1,11.58   c-0.98,4.07-2.69,7.84-5.12,11.29c-2.43,3.45-5.61,6.42-9.53,8.9c-3.92,2.48-8.6,4.34-14.04,5.56c-5.44,1.22-11.65,1.58-18.64,1.09   c-6.07-0.43-11.82-1.65-17.26-3.65c-5.32-1.95-10.03-4.36-14.13-7.22c-0.18-0.13-0.39-0.22-0.6-0.28l0,0   c-1.74-0.46-2.73-2.31-2.13-4.02l2-5.74C481.78,255.68,488.88,251,496.56,251.55z"/>
	<linearGradient id="SVGID_45_" gradientUnits="userSpaceOnUse" x1="695.0026" y1="405.7166" x2="695.0026" y2="189.9347">
		<stop offset="0.4462" style="stop-color:#EDEDED"/>
		<stop offset="0.5087" style="stop-color:#F1F1F1"/>
		<stop offset="0.7325" style="stop-color:#FCFCFC"/>
		<stop offset="1" style="stop-color:#FFFFFF"/>
	</linearGradient>
	<path class="st53" d="M735.92,269.45c-3.3,10.27-13.57,16.67-24.23,15.03c-1.81-0.28-3.53-0.67-5.15-1.18   c-3.97-1.24-6.94-3.08-8.91-5.52c-2.1-2.58-5.57-3.58-8.63-2.26c-1.83,0.79-10.28,9.21-21.7,8.32   c-11.51-0.9-17.85-5.52-21.45-14.28c-3.6-8.76-0.93-28.61,4.84-43.99c5.19-13.97,12.35-23.89,21.48-29.74   c9.13-5.86,20.97-7.59,35.51-5.2c2.93,0.48,6.2,1.19,9.81,2.13c3.61,0.94,7.2,2.02,10.76,3.24c3.56,1.22,6.91,2.52,10.04,3.91   c3.13,1.38,5.63,2.75,7.49,4.1c-2.27,7.5-4.49,14.67-6.66,21.49c-1.89,5.83-3.73,11.64-5.55,17.42   c-1.82,5.78-3.22,10.27-4.21,13.47c-0.93,2.86-1.52,5.2-1.76,7.01c-0.24,1.81-0.09,3.2,0.45,4.16c0.54,0.96,1.45,1.57,2.74,1.84   C732.09,269.66,733.79,269.68,735.92,269.45L735.92,269.45z M687.35,260.07c2.15,0.58,4.25,0.39,6.31-0.57l0,0   c3.46-1.61,6.08-4.61,7.2-8.26l8.68-28.18c1.53-4.98-1.97-10.09-7.17-10.46l0,0c-5.2-0.4-9.54,1.28-13.01,5.03   c-3.48,3.76-6.44,9.37-8.9,16.84c-2.28,7.05-2.73,12.85-1.35,17.41C680.5,256.44,683.24,259.17,687.35,260.07z"/>
	<linearGradient id="SVGID_46_" gradientUnits="userSpaceOnUse" x1="945.5396" y1="405.7166" x2="945.5396" y2="189.9347">
		<stop offset="0.4462" style="stop-color:#EDEDED"/>
		<stop offset="0.5087" style="stop-color:#F1F1F1"/>
		<stop offset="0.7325" style="stop-color:#FCFCFC"/>
		<stop offset="1" style="stop-color:#FFFFFF"/>
	</linearGradient>
	<path class="st54" d="M1002.55,223.94c0.08-5.73-0.79-10.79-2.61-15.19c-1.82-4.39-4.64-8.01-8.45-10.84   c-3.81-2.83-8.68-4.66-14.6-5.48c-4.88-0.67-9.53-0.45-13.94,0.65c-4.41,1.11-8.54,2.7-12.38,4.77l-1.17-5.67   c-6.12-0.84-12.33-0.68-18.39,0.49l-18.21,3.52l-0.61,2.1c-1.68,5.83,0.4,12.1,5.25,15.77l-23.43,83.14l-0.15,0.11l-4.69,16.43   c-2.39,8.45,2.26,15.06,8.44,18.16c4.38,2.19,10.35,2.93,17.94,2.21c6.04-0.57,11.06-4.57,12.65-9.92l1.31-4.4l-4.96-0.7   c-1.33-0.19-2.29-0.71-2.88-1.58c-0.59-0.86-0.81-2.15-0.65-3.85c0.16-1.7,0.65-3.9,1.47-6.61c0.38-1.17,0.76-2.39,1.14-3.65l0,0   l0.01-0.03c0.34-1.11,0.67-2.25,1.01-3.44c0.05-0.11,0.09-0.22,0.12-0.33l5.7-19.64c2.19,0.81,5.03,1.38,7.34,1.98   c2.46,0.63,5.02,1.14,7.69,1.5c6.74,0.93,12.93,0.63,18.59-0.9c5.65-1.53,10.78-4.11,15.36-7.74c4.58-3.63,8.58-8.17,12-13.62   c3.41-5.45,6.13-11.64,8.16-18.59C1001.49,235.9,1002.47,229.68,1002.55,223.94z M964.67,252.36   c-10.39,20.39-29.56,11.43-28.01,5.96l8.1-28.47c2.15-1.84,9-9.3,18.75-6.87C971.2,224.75,971.95,238.08,964.67,252.36z"/>
	<linearGradient id="SVGID_47_" gradientUnits="userSpaceOnUse" x1="822.8818" y1="405.7166" x2="822.8818" y2="189.9347">
		<stop offset="0.4462" style="stop-color:#EDEDED"/>
		<stop offset="0.5087" style="stop-color:#F1F1F1"/>
		<stop offset="0.7325" style="stop-color:#FCFCFC"/>
		<stop offset="1" style="stop-color:#FFFFFF"/>
	</linearGradient>
	<path class="st55" d="M879.06,257.73c0.7-2.07,1.41-4.32,2.13-6.72c0.05-0.1,0.09-0.2,0.12-0.31l8.53-27.99l-0.01-0.01   c1.95-7.11,2.61-17.61-0.12-22.06c-2.84-4.62-7.99-7.5-15.44-8.66c-4.23-0.66-8.51-0.15-12.94,1.17   c-4.41,1.3-12.79,8.33-17.31,11.58c-1.09,0.26-2.28-0.25-2.73-1.36c-0.97-2.41-2.56-4.53-4.76-6.37   c-3.11-2.59-7.13-4.28-12.06-5.04c-4.43-0.69-8.75-0.3-12.94,1.17c-2.91,1.01-5.64,2.41-8.2,4.2c-1.5,1.04-3.56,0.12-3.75-1.7   l-0.29-2.83c-0.11-1.08-0.94-1.94-2.01-2.11h0c-4.1-0.64-8.27-0.59-12.36,0.14l-17.54,3.12l-0.75,2.45   c-1.24,4.05,0.12,8.44,3.43,11.08c0.76,0.61,1.08,1.62,0.8,2.55l-6.03,20.05l0,0l-5.07,16.86c-0.04,0.14-0.07,0.27-0.11,0.41   l-4.66,15.53c-2.37,7.99,1.45,14.49,6.73,17.68c3.74,2.26,8.93,3.19,15.57,2.8c5.29-0.32,9.8-3.95,11.38-9l1.29-4.15l-4.3-0.85   c-1.15-0.23-1.97-0.77-2.46-1.62c-0.49-0.85-0.63-2.08-0.43-3.7c0.2-1.62,0.7-3.71,1.51-6.26c0.7-2.07,1.41-4.32,2.13-6.72   c0.05-0.1,0.09-0.2,0.12-0.31l8.53-27.99c0.07-0.22,0.2-0.42,0.29-0.63c3.15-7.06,8.18-7.73,13.95-7.64c5.3,0.08,6.2,4.27,5.19,8   c-0.43,1.59-1,3.46-1.65,5.62c-0.44,1.47-0.91,3.02-1.42,4.65l-0.05-0.04l-0.01,0.46l-4.15,13.8c-0.04,0.14-0.07,0.27-0.11,0.41   l-4.66,15.53c-2.37,7.99,1.45,14.49,6.73,17.68c3.74,2.26,8.93,3.19,15.57,2.8c5.29-0.32,9.8-3.95,11.38-9l1.29-4.15l-4.3-0.85   c-1.15-0.23-1.97-0.77-2.46-1.62c-0.49-0.85-0.63-2.08-0.43-3.7c0.2-1.62,0.7-3.71,1.51-6.26c0.7-2.07,1.41-4.32,2.13-6.72   c0.05-0.1,0.09-0.2,0.12-0.31l8.53-27.99l-0.08-0.04l0.01-0.03c0.07-0.22,0.2-0.42,0.29-0.63c3.15-7.06,8.18-7.73,13.95-7.64   c5.3,0.08,6.2,4.27,5.19,8c-0.43,1.59-1,3.46-1.65,5.62c-0.44,1.47-0.91,3.02-1.42,4.65l0.04,0l-4.3,14.3   c-0.04,0.14-0.07,0.27-0.11,0.41l-4.66,15.53c-2.37,7.99,1.45,14.49,6.73,17.68c3.74,2.26,8.93,3.19,15.57,2.8   c5.29-0.32,9.8-3.95,11.38-9l1.29-4.15l-4.3-0.85c-1.15-0.23-1.97-0.77-2.46-1.62c-0.49-0.85-0.63-2.08-0.43-3.7   C877.74,262.37,878.25,260.29,879.06,257.73z"/>
	<linearGradient id="SVGID_48_" gradientUnits="userSpaceOnUse" x1="244.8526" y1="405.7166" x2="244.8526" y2="189.9347">
		<stop offset="0.4462" style="stop-color:#EDEDED"/>
		<stop offset="0.5087" style="stop-color:#F1F1F1"/>
		<stop offset="0.7325" style="stop-color:#FCFCFC"/>
		<stop offset="1" style="stop-color:#FFFFFF"/>
	</linearGradient>
	<path class="st56" d="M354.52,299.4c-6.74-0.41-12.73-1.15-18.07-2.19c-4.61,4.94-9.55,9.57-14.87,13.77   c-8.36,6.3-17.4,11.59-27,15.76c-9.85,4.02-20.12,6.83-30.65,8.38c-10.67,1.32-21.45,1.35-32.13,0.09   c-0.09-0.01-0.18-0.02-0.27-0.03c-10.61-1.55-20.97-4.38-30.9-8.43c-9.62-4.19-18.7-9.5-27.07-15.82   c-8.21-6.49-15.62-13.9-22.1-22.11c-6.28-8.33-11.55-17.35-15.72-26.92c-4.05-9.91-6.87-20.25-8.42-30.84   c-1.32-10.82-1.32-21.74,0-32.56c1.55-10.55,4.35-20.85,8.38-30.73c4.19-9.63,9.49-18.71,15.82-27.09   c6.46-8.16,13.82-15.53,21.99-21.98c8.37-6.32,17.44-11.62,27.06-15.8c9.89-4.03,20.21-6.84,30.77-8.39   c10.79-1.32,21.69-1.33,32.48-0.01c10.61,1.54,20.96,4.36,30.89,8.41c9.67,4.21,18.79,9.53,27.21,15.88   c1.73,1.36,3.42,2.77,5.07,4.22c6,5.34,11.54,11.19,16.54,17.51c6.34,8.4,11.67,17.5,15.88,27.15c0.76,1.85,1.36,3.75,2.03,5.64   c0.04,0,0.08-0.01,0.12-0.01c6.91,0,13.34,1.1,19.26,3.07c-0.14-0.48-0.26-0.97-0.4-1.45c-1.96-6.57-4.53-12.96-7.4-19.18   c-2.66-5.78-5.81-11.32-9.3-16.64c-3.79-5.79-8.08-11.28-12.66-16.46c-3.8-4.29-7.92-8.3-12.27-12.03   c-2.58-2.23-5.24-4.38-7.95-6.45c-5.16-3.95-10.58-7.51-16.26-10.67c-6.03-3.36-12.38-6.17-18.82-8.63   c-12.65-4.84-26.09-7.46-39.59-8.39c-2.81-0.19-5.63-0.29-8.45-0.29c-3.59,0-7.18,0.15-10.76,0.43   c-7.13,0.55-14.24,1.65-21.21,3.25c-6.36,1.45-12.58,3.45-18.64,5.84c-6.52,2.58-12.87,5.58-18.95,9.08   c-5.98,3.44-11.57,7.44-16.99,11.68c-5.03,3.94-9.74,8.28-14.15,12.9c-4.72,4.96-9.01,10.35-13,15.91   c-3.71,5.19-6.99,10.68-9.9,16.36c-3.23,6.3-5.96,12.9-8.23,19.61c-2.12,6.26-3.7,12.7-4.84,19.22   c-2.4,13.77-2.84,27.78-1.04,41.64c0.91,7.03,2.22,13.96,4.15,20.79c1.91,6.76,4.47,13.32,7.34,19.73   c5.36,11.97,12.69,22.95,21.18,32.91c8.43,9.88,18.45,18.41,29.28,25.55c5.3,3.49,10.88,6.54,16.62,9.22   c6.28,2.93,12.76,5.42,19.39,7.42c5.02,1.51,10.13,2.67,15.3,3.55c12.56,2.21,25.4,2.75,38.09,1.44   c7.09-0.73,14.14-1.93,21.05-3.69c6.79-1.73,13.35-4.11,19.79-6.84c5.9-2.5,11.6-5.41,17.08-8.71c5.86-3.54,11.39-7.61,16.7-11.93   c7.93-6.45,15-13.9,21.25-21.98c-0.63-0.02-1.27-0.09-1.9-0.12C355.06,299.39,354.79,299.42,354.52,299.4z"/>
	<linearGradient id="SVGID_49_" gradientUnits="userSpaceOnUse" x1="341.5544" y1="405.7166" x2="341.5544" y2="189.9347">
		<stop offset="0.4462" style="stop-color:#EDEDED"/>
		<stop offset="0.5087" style="stop-color:#F1F1F1"/>
		<stop offset="0.7325" style="stop-color:#FCFCFC"/>
		<stop offset="1" style="stop-color:#FFFFFF"/>
	</linearGradient>
	<path class="st57" d="M341.47,176.69c1.52-0.49,3.07-0.89,4.63-1.27c-0.4-1.02-0.81-2.04-1.24-3.05c-1.16-2.7-2.43-5.35-3.81-7.94   c-0.86,0.52-1.72,1.02-2.6,1.52c-0.48,0.27-0.96,0.53-1.44,0.79c1.19,2.32,2.3,4.68,3.33,7.08   C340.73,174.77,341.1,175.73,341.47,176.69z"/>
	<linearGradient id="SVGID_50_" gradientUnits="userSpaceOnUse" x1="318.017" y1="405.7166" x2="318.017" y2="189.9347">
		<stop offset="0.4462" style="stop-color:#EDEDED"/>
		<stop offset="0.5087" style="stop-color:#F1F1F1"/>
		<stop offset="0.7325" style="stop-color:#FCFCFC"/>
		<stop offset="1" style="stop-color:#FFFFFF"/>
	</linearGradient>
	<path class="st58" d="M317.17,290.53c-0.93,0.88-1.86,1.77-2.82,2.61c0.9,1.3,1.75,2.63,2.6,3.96c1.63-1.41,3.19-2.89,4.73-4.4   C320.1,292.03,318.58,291.31,317.17,290.53z"/>
</g>
</svg>